<svg width="18" height="18" viewBox="0 0 18 18" fill="none" xmlns="http://www.w3.org/2000/svg">
<g id="star (1) 5" clip-path="url(#clip0_1_288)">
<g id="Layer 2">
<g id="star">
<path id="Vector" d="M13.1699 15.75C13.05 15.7505 12.9317 15.7222 12.8249 15.6675L8.99995 13.665L5.17494 15.6675C5.05074 15.7328 4.9107 15.762 4.77075 15.7517C4.6308 15.7413 4.49655 15.692 4.38327 15.6091C4.26998 15.5263 4.1822 15.4134 4.12991 15.2832C4.07761 15.1529 4.0629 15.0107 4.08744 14.8725L4.83744 10.65L1.74744 7.65C1.65104 7.55379 1.58265 7.43315 1.54961 7.30102C1.51658 7.16889 1.52015 7.03026 1.55994 6.9C1.60341 6.76671 1.68338 6.64827 1.79076 6.55812C1.89814 6.46797 2.02864 6.40973 2.16744 6.39L6.44244 5.7675L8.32495 1.92C8.38636 1.7932 8.48225 1.68626 8.60163 1.61143C8.72101 1.5366 8.85905 1.49692 8.99995 1.49692C9.14084 1.49692 9.27888 1.5366 9.39826 1.61143C9.51764 1.68626 9.61353 1.7932 9.67494 1.92L11.5799 5.76L15.8549 6.3825C15.9938 6.40223 16.1243 6.46047 16.2316 6.55062C16.339 6.64077 16.419 6.75921 16.4624 6.8925C16.5022 7.02276 16.5058 7.16139 16.4728 7.29352C16.4397 7.42565 16.3714 7.54629 16.2749 7.6425L13.1849 10.6425L13.9349 14.865C13.9617 15.0056 13.9477 15.1509 13.8945 15.2838C13.8414 15.4167 13.7513 15.5316 13.6349 15.615C13.4991 15.7102 13.3356 15.7576 13.1699 15.75Z" fill="#69B99D"/>
</g>
</g>
</g>
<defs>
<clipPath id="clip0_1_288">
<rect width="18" height="18" fill="white"/>
</clipPath>
</defs>
</svg>
